HIERARCHY
ROOT Hips
{
	OFFSET 0.00000 0.00000 0.00000
	CHANNELS 6 Xposition Yposition Zposition Zrotation Yrotation Xrotation 
	JOINT LHipJoint
	{
		OFFSET 0 0 0
		CHANNELS 3 Zrotation Yrotation Xrotation
		JOINT LeftUpLeg
		{
			OFFSET 1.26600 -1.82114 0.91038
			CHANNELS 3 Zrotation Yrotation Xrotation
			JOINT LeftLeg
			{
				OFFSET 2.50076 -6.87080 0.00000
				CHANNELS 3 Zrotation Yrotation Xrotation
				JOINT LeftFoot
				{
					OFFSET 2.57364 -7.07102 0.00000
					CHANNELS 3 Zrotation Yrotation Xrotation
					JOINT LeftToeBase
					{
						OFFSET 0.13572 -0.37290 1.97004
						CHANNELS 3 Zrotation Yrotation Xrotation
						End Site
						{
							OFFSET 0.00000 -0.00000 1.01383
						}
					}
				}
			}
		}
	}
	JOINT RHipJoint
	{
		OFFSET 0 0 0
		CHANNELS 3 Zrotation Yrotation Xrotation
		JOINT RightUpLeg
		{
			OFFSET -1.20803 -1.82114 0.91038
			CHANNELS 3 Zrotation Yrotation Xrotation
			JOINT RightLeg
			{
				OFFSET -2.54916 -7.00377 0.00000
				CHANNELS 3 Zrotation Yrotation Xrotation
				JOINT RightFoot
				{
					OFFSET -2.56374 -7.04382 0.00000
					CHANNELS 3 Zrotation Yrotation Xrotation
					JOINT RightToeBase
					{
						OFFSET -0.23520 -0.64621 2.09921
						CHANNELS 3 Zrotation Yrotation Xrotation
						End Site
						{
							OFFSET -0.00000 -0.00000 1.10065
						}
					}
				}
			}
		}
	}
	JOINT LowerBack
	{
		OFFSET 0 0 0
		CHANNELS 3 Zrotation Yrotation Xrotation
		JOINT Spine
		{
			OFFSET 0.05492 2.10797 -0.12074
			CHANNELS 3 Zrotation Yrotation Xrotation
			JOINT Spine1
			{
				OFFSET 0.04577 2.11592 -0.04483
				CHANNELS 3 Zrotation Yrotation Xrotation
				JOINT Neck
				{
					OFFSET 0 0 0
					CHANNELS 3 Zrotation Yrotation Xrotation
					JOINT Neck1
					{
						OFFSET -0.10759 1.80167 0.15770
						CHANNELS 3 Zrotation Yrotation Xrotation
						JOINT Head
						{
							OFFSET 0.09237 1.77509 -0.40848
							CHANNELS 3 Zrotation Yrotation Xrotation
							End Site
							{
								OFFSET 0.03805 1.84093 -0.15754
							}
						}
					}
				}
				JOINT LeftShoulder
				{
					OFFSET 0 0 0
					CHANNELS 3 Zrotation Yrotation Xrotation
					JOINT LeftArm
					{
						OFFSET 3.42372 1.09575 -0.28209
						CHANNELS 3 Zrotation Yrotation Xrotation
						JOINT LeftForeArm
						{
							OFFSET 4.95681 -0.00000 0.00000
							CHANNELS 3 Zrotation Yrotation Xrotation
							JOINT LeftHand
							{
								OFFSET 3.40915 -0.00000 0.00000
								CHANNELS 3 Zrotation Yrotation Xrotation
								JOINT LeftFingerBase
								{
									OFFSET 0 0 0
									CHANNELS 3 Zrotation Yrotation Xrotation
									JOINT LeftHandIndex1
									{
										OFFSET 0.61640 -0.00000 0.00000
										CHANNELS 3 Zrotation Yrotation Xrotation
										End Site
										{
											OFFSET 0.49696 -0.00000 0.00000
										}
									}
								}
								JOINT LThumb
								{
									OFFSET 0 0 0
									CHANNELS 3 Zrotation Yrotation Xrotation
									End Site
									{
										OFFSET 0.50455 -0.00000 0.50455
									}
								}
							}
						}
					}
				}
				JOINT RightShoulder
				{
					OFFSET 0 0 0
					CHANNELS 3 Zrotation Yrotation Xrotation
					JOINT RightArm
					{
						OFFSET -3.24731 1.15872 -0.32221
						CHANNELS 3 Zrotation Yrotation Xrotation
						JOINT RightForeArm
						{
							OFFSET -5.35200 -0.00000 0.00000
							CHANNELS 3 Zrotation Yrotation Xrotation
							JOINT RightHand
							{
								OFFSET -3.43721 -0.00000 -0.00000
								CHANNELS 3 Zrotation Yrotation Xrotation
								JOINT RightFingerBase
								{
									OFFSET 0 0 0
									CHANNELS 3 Zrotation Yrotation Xrotation
									JOINT RightHandIndex1
									{
										OFFSET -0.72009 -0.00000 0.00000
										CHANNELS 3 Zrotation Yrotation Xrotation
										End Site
										{
											OFFSET -0.58056 -0.00000 0.00000
										}
									}
								}
								JOINT RThumb
								{
									OFFSET 0 0 0
									CHANNELS 3 Zrotation Yrotation Xrotation
									End Site
									{
										OFFSET -0.58942 -0.00000 0.58942
									}
								}
							}
						}
					}
				}
			}
		}
	}
}
MOTION
Frames: 12
Frame Time: 0.0909091
0.00 0.00 0.00 0 0 0 0 0 0 -21 0 0 0 0 0 0 0 0 0 0 0 0 0 0 21 0 0 0 0 0 0 0 0 0 0 0 0 0 0 0 0 0 0 0 0 0 0 -16 0 0 21 0 0 11 0 0 0 -8 0 0 0 0 0 0 0 0 0 0 0 0 0 0 0 0 0 0 0 0 8 0 0 0 0 0 0 0 0 0 0 0 0 0 0 0 0 0
0.00 0.00 0.00 -5.9284 0.3393 0.2523 0.0000 0.0000 0.0000 -10.5078 -6.5813 -12.8082 5.1622 13.5642 41.5188 0.4737 -8.9743 -12.8973 0.4426 -4.2686 -11.8336 0.0000 0.0000 0.0000 31.9183 -1.9364 -3.8160 -1.5693 -7.9046 22.4247 -0.9813 7.6837 -17.7197 -0.9118 -6.0845 17.0298 4.8444 -0.3208 2.2328 3.7999 -0.3265 1.2092 1.1961 -0.1529 -0.0138 -9.4224 -2.5953 -14.4110 3.8266 -2.3735 35.1969 2.8536 -1.7549 14.7844 -0.0000 -0.0000 0.0000 -90.9968 3.0129 25.8310 14.3473 -23.2290 -2.9637 -0.0000 -0.0000 2.8113 20.0452 21.3074 7.5523 -7.1250 0.0000 -0.0000 -8.8797 52.3120 -1.6086 -0.0000 -0.0000 0.0000 88.8769 -2.5973 18.8441 -13.0165 21.3114 -2.4593 0.0000 -0.0000 -6.9017 -21.0214 9.4911 -3.6259 7.1250 -0.0000 -0.0000 4.2400 -19.8397 2.5563
0.00 0.00 0.00 -8.7282 -0.6379 -0.5661 0.0000 0.0000 0.0000 -5.5660 -5.9485 -23.7723 9.5341 17.1394 57.9194 -0.0616 -9.4963 -5.5085 0.2922 -3.4763 -9.6078 0.0000 0.0000 0.0000 34.7115 -5.3302 -0.2281 -0.8474 -5.8712 16.4111 -0.5412 10.2631 -13.9792 -1.0878 -6.6285 18.6194 8.7029 0.3712 4.4189 4.6194 0.8511 2.2735 -0.1310 0.4683 -0.0639 -9.7009 -2.5799 -14.5325 4.0740 -2.3166 35.4197 3.0255 -1.7285 14.9221 0.0000 0.0000 0.0000 -91.9956 3.1024 25.0664 14.5643 -23.5357 -3.0498 -0.0000 -0.0000 1.4618 21.0641 19.3805 7.2833 -7.1250 0.0000 -0.0000 -7.2451 50.4946 -0.9856 0.0000 0.0000 0.0000 87.5374 -1.4867 19.8695 -13.4007 21.8715 -2.6007 0.0000 -0.0000 -8.3800 -17.6405 8.6805 -2.7477 7.1250 -0.0000 -0.0000 6.6637 -20.9048 3.8732
0.00 0.00 0.00 -8.9294 -2.8568 -0.2475 0.0000 0.0000 0.0000 -5.5748 -5.8836 -31.6970 5.2458 13.6553 41.8740 0.2304 -8.6648 -9.7888 0.4104 -4.1127 -11.3938 0.0000 0.0000 0.0000 34.3736 -7.6509 7.7301 -0.1514 -2.5074 6.9101 -0.1507 11.2978 -9.9821 -0.6891 -5.3072 14.7868 9.9096 1.3470 4.8140 4.6513 2.2002 2.7114 -0.8104 1.1717 0.3136 -9.8477 -2.2765 -12.7809 4.4621 -2.1496 36.0455 3.2632 -1.6450 14.8000 -0.0000 -0.0000 0.0000 -93.2054 6.3696 22.3494 13.2335 -21.6284 -2.5387 -0.0000 -0.0000 4.0682 19.2060 19.9676 6.7839 -7.1250 0.0000 -0.0000 -9.2485 50.7944 -1.3303 -0.0000 -0.0000 0.0000 86.0617 -1.1082 18.3708 -13.5286 22.0568 -2.6485 0.0000 -0.0000 -7.1933 -19.6617 8.9123 -3.1683 7.1250 -0.0000 -0.0000 5.2086 -20.5435 3.0621
0.00 0.00 0.00 -9.5153 -3.9187 0.8737 0.0000 0.0000 0.0000 -4.2615 -7.1682 -31.6424 2.0431 8.9552 25.6554 0.3369 -9.1375 -11.3483 0.2582 -3.2691 -9.0290 0.0000 0.0000 0.0000 34.5551 -8.0760 13.4292 0.0000 -0.0000 0.0000 -0.0830 9.9314 -8.2797 -0.3803 -3.9605 10.9656 9.7439 1.1468 3.9526 4.7179 1.8122 2.6494 -0.6157 0.9876 0.6898 -8.8687 -1.8867 -14.1635 3.9515 -1.5509 36.8001 2.9960 -1.3454 15.4070 0.0000 0.0000 0.0000 -93.4383 6.6042 19.8479 12.2743 -20.2147 -2.1961 -0.0000 -0.0000 5.2190 20.2552 19.7429 7.1056 -7.1250 0.0000 -0.0000 -8.1489 50.7368 -1.1586 0.0000 0.0000 0.0000 86.1199 -0.8397 19.3953 -13.8011 22.4497 -2.7517 0.0000 -0.0000 -8.9741 -21.7252 10.6918 -4.2279 7.1250 -0.0000 -0.0000 3.7681 -18.5057 2.3824
0.00 0.00 0.00 -7.8858 -5.2944 1.2760 0.0000 0.0000 0.0000 -7.6322 -6.7985 -25.9470 1.7998 8.4359 24.0461 -0.1489 -6.8285 2.6987 0.0517 1.4667 4.0340 0.0000 0.0000 0.0000 30.3191 -6.0559 14.8534 -0.7291 -5.4556 15.2128 0.0583 9.6863 -5.7309 -0.0848 1.8786 -5.1703 8.4904 1.1588 2.3639 4.0419 1.7098 1.3347 -0.6115 0.8831 0.1805 -9.0123 -1.3769 -13.6121 3.4122 -0.6062 37.4348 2.9609 -1.0699 15.5097 -0.0000 -0.0000 0.0000 -93.3559 6.3320 19.6291 13.4008 -21.8717 -2.6007 -0.0000 -0.0000 3.2667 19.2010 19.7168 6.7010 -7.1250 0.0000 -0.0000 -9.1707 50.5366 -1.2605 -0.0000 -0.0000 0.0000 87.8356 -4.1578 13.2244 -12.1810 20.0755 -2.1640 0.0000 -0.0000 -5.7344 -21.6149 9.4037 -3.7041 7.1250 -0.0000 -0.0000 3.8140 -19.8902 2.2939
0.00 0.00 0.00 -5.3860 -4.8309 -0.7057 0.0000 0.0000 0.0000 -12.4991 -3.4333 -21.4908 1.7221 8.2616 23.5114 -0.3034 -9.7724 2.4191 0.1466 2.4677 6.8000 0.0000 0.0000 0.0000 26.8583 -5.2235 8.9262 -3.1094 -10.8701 31.8429 0.1653 7.2634 3.7646 -0.0060 -0.4983 1.3691 6.2892 0.9504 3.2111 3.3084 1.4364 1.8398 -0.1596 0.7466 0.1659 -8.7074 -1.4254 -14.0512 2.8454 -0.5039 37.8172 2.6921 -1.0728 15.8012 -0.0000 0.0000 0.0000 -92.5229 5.4612 21.2956 15.1294 -24.3260 -3.2790 -0.0000 -0.0000 0.8906 18.5234 20.7627 6.7735 -7.1250 0.0000 -0.0000 -10.1926 51.4915 -1.6440 -0.0000 0.0000 0.0000 88.2995 -5.9033 14.2441 -14.0531 22.8106 -2.8487 0.0000 -0.0000 -9.3449 -21.3151 7.5925 -2.9512 7.1250 -0.0000 -0.0000 4.0042 -21.8445 2.2321
0.00 0.00 0.00 -2.9226 -6.5011 -1.0746 0.0000 0.0000 0.0000 -16.2497 -1.7427 -16.8615 1.2068 6.9693 19.6246 -0.2022 -7.9879 2.0418 0.3801 3.9592 10.9620 0.0000 0.0000 0.0000 23.1400 -1.5711 0.3313 -6.8408 -15.1964 48.2698 -0.4700 2.2774 13.9801 -0.2378 -3.1381 8.6633 3.9801 1.3038 3.8959 2.7676 1.9015 1.5475 0.5306 0.9531 -0.5575 -8.7943 -1.1281 -14.3157 2.2561 0.2447 38.5681 2.5986 -0.8819 16.2026 0.0000 0.0000 0.0000 -91.8094 5.1190 22.5954 16.8536 -26.6644 -4.0214 -0.0000 0.0000 -0.4753 19.3803 20.4884 7.0192 -7.1250 0.0000 -0.0000 -9.2533 51.3570 -1.4595 0.0000 0.0000 0.0000 87.8829 -6.1972 15.9532 -15.0302 24.1882 -3.2383 0.0000 -0.0000 -10.0391 -20.5115 8.8839 -3.3066 7.1250 -0.0000 -0.0000 4.5973 -20.5193 2.7027
0.00 0.00 0.00 -1.5519 -7.7735 -1.7250 0.0000 0.0000 0.0000 -18.1862 0.8159 -13.3577 0.9063 6.0666 16.9777 -0.2329 -8.7145 1.2426 0.2424 3.1681 8.7472 0.0000 0.0000 0.0000 21.4468 0.0937 -7.1505 -10.4049 -17.6313 60.8333 0.0106 -1.8726 -1.1273 -0.0139 0.7617 -2.0933 2.2125 1.2065 4.4966 2.5177 1.7222 1.7664 1.2568 0.8590 -0.7178 -8.3463 -0.5025 -14.4663 1.7747 1.2394 38.3187 2.4719 -0.4658 16.0375 -0.0000 -0.0000 0.0000 -90.5963 4.2379 22.5577 18.4669 -28.7509 -4.7717 -0.0000 0.0000 -2.4442 19.8663 21.6436 7.5911 -7.1250 0.0000 -0.0000 -9.1796 52.6248 -1.7343 -0.0000 -0.0000 0.0000 87.7819 -4.9250 17.8404 -16.4872 26.1769 -3.8584 0.0000 -0.0000 -12.5699 -20.2419 8.6060 -3.1584 7.1250 -0.0000 -0.0000 4.7892 -20.8308 2.7827
0.00 0.00 0.00 -0.8865 -8.3366 -2.0993 0.0000 0.0000 0.0000 -19.3881 0.0498 -10.1056 1.1164 6.7122 18.8654 -0.0548 -7.6894 -4.0955 0.2246 3.0504 8.4190 0.0000 0.0000 0.0000 20.9883 2.7398 -15.3712 -9.8345 -17.3157 58.9337 -0.9914 3.8278 -17.9245 -0.1420 2.4286 -6.6917 1.0668 0.3534 4.9187 2.6028 0.5523 1.6833 2.0433 0.2709 -1.0431 -7.3732 0.4903 -15.0756 0.5996 2.9499 38.8784 2.0967 0.1832 16.4063 -0.0000 0.0000 0.0000 -88.5199 2.6559 21.0572 19.1502 -29.6049 -5.1049 -0.0000 0.0000 -3.3781 20.7258 19.8057 7.3060 -7.1250 0.0000 -0.0000 -7.7063 50.8802 -1.1222 -0.0000 0.0000 0.0000 87.5474 -2.9814 19.3452 -19.6691 30.2416 -5.3637 0.0000 -0.0000 -13.9277 -20.4590 10.9467 -4.0523 7.1250 -0.0000 -0.0000 4.6679 -18.3380 2.9721
0.00 0.00 0.00 -1.9982 -6.9378 -1.1386 0.0000 0.0000 0.0000 -17.9869 -1.8280 -11.2160 1.8649 8.5789 24.4866 0.1274 -8.8171 -8.3512 0.0935 1.9720 5.4284 0.0000 0.0000 0.0000 23.2457 4.3930 -16.9903 -5.4760 -13.9006 42.8407 -1.6307 7.0587 -22.8858 -0.1443 2.4483 -6.7463 0.8132 -0.4737 4.4516 3.3329 -0.5519 1.2746 3.0011 -0.2803 -1.1608 -6.9853 0.7418 -15.1388 0.2662 3.3019 38.2759 1.9311 0.3592 16.1027 -0.0000 0.0000 0.0000 -87.5212 1.7547 20.7109 19.1759 -29.6367 -5.1175 -0.0000 0.0000 -3.2726 20.5908 21.0418 7.6823 -7.1250 0.0000 -0.0000 -8.2425 52.1353 -1.4560 -0.0000 0.0000 0.0000 87.2262 -2.6681 20.1717 -22.1428 33.1380 -6.6637 0.0000 -0.0000 -14.4855 -21.0698 9.3518 -3.5822 7.1250 -0.0000 -0.0000 4.2030 -19.9845 2.5202
0.00 0.00 0.00 -178.0110 -3.9827 182.1160 0.0000 0.0000 0.0000 -21.6298 3.3938 7.3349 0.3223 3.6491 10.0915 0.2870 -11.3450 -11.6419 0.2018 2.8928 7.9803 0.0000 0.0000 0.0000 20.4380 5.3862 -32.1699 -2.2725 -9.4121 27.0930 -0.7207 1.8886 -15.5073 -0.0184 -0.8754 2.4061 -1.3739 0.4280 5.2993 1.9251 0.3576 2.7102 2.7313 0.0850 -0.2057 -10.3459 -1.6105 -14.4978 5.9726 -3.7494 31.3487 3.3765 -2.9104 13.2100 0.0000 -0.0000 0.0000 -88.2546 4.0093 16.6961 10.6470 -17.7452 -1.6667 -0.0000 -0.0000 6.7078 19.2096 22.0993 7.4679 -7.1250 0.0000 -0.0000 -10.0090 52.9712 -1.9787 0.0000 -0.0000 0.0000 87.4204 0.1712 19.8800 -18.6620 28.9965 -4.8659 0.0000 -0.0000 -14.5056 -20.4271 9.6431 -3.5699 7.1250 -0.0000 -0.0000 4.6669 -19.7204 2.8277
